<svg width="20" height="20" viewBox="0 0 20 20" fill="none" xmlns="http://www.w3.org/2000/svg">
<circle cx="9.99975" cy="9.70874" r="9.70874" fill="#7F7F7F"/>
<path d="M14.2442 7.40715C14.239 7.01499 14.1656 6.62671 14.0272 6.25971C13.9073 5.95015 13.7241 5.669 13.4893 5.43425C13.2546 5.1995 12.9734 5.01629 12.6639 4.89635C12.3016 4.76035 11.9189 4.68681 11.532 4.67887C11.0338 4.6566 10.8759 4.65039 9.61145 4.65039C8.34699 4.65039 8.18492 4.65039 7.69042 4.67887C7.3037 4.68687 6.92115 4.76041 6.55903 4.89635C6.24941 5.01621 5.96823 5.19938 5.73347 5.43415C5.4987 5.66891 5.31553 5.9501 5.19566 6.25971C5.05939 6.62172 4.98602 7.00436 4.9787 7.3911C4.95644 7.88974 4.94971 8.04767 4.94971 9.31214C4.94971 10.5766 4.94971 10.7382 4.9787 11.2332C4.98647 11.6205 5.05948 12.0026 5.19566 12.3656C5.31573 12.6751 5.49904 12.9562 5.73388 13.1909C5.96872 13.4255 6.24993 13.6086 6.55955 13.7284C6.92068 13.8699 7.3033 13.9487 7.69094 13.9615C8.18958 13.9837 8.34751 13.9905 9.61197 13.9905C10.8764 13.9905 11.0385 13.9905 11.533 13.9615C11.9199 13.9538 12.3026 13.8805 12.6649 13.7445C12.9744 13.6244 13.2555 13.4412 13.4902 13.2064C13.7249 12.9717 13.9082 12.6906 14.0283 12.3811C14.1645 12.0187 14.2375 11.6365 14.2452 11.2487C14.2675 10.7506 14.2742 10.5927 14.2742 9.32767C14.2732 8.06321 14.2732 7.90269 14.2442 7.40715ZM9.60835 11.7033C8.28589 11.7033 7.21456 10.632 7.21456 9.30955C7.21456 7.98709 8.28589 6.91576 9.60835 6.91576C10.2432 6.91576 10.8521 7.16796 11.301 7.61689C11.7499 8.06581 12.0021 8.67468 12.0021 9.30955C12.0021 9.94442 11.7499 10.5533 11.301 11.0022C10.8521 11.4511 10.2432 11.7033 9.60835 11.7033ZM12.0974 7.38541C11.7883 7.38541 11.5392 7.13583 11.5392 6.82722C11.5392 6.75395 11.5537 6.6814 11.5817 6.61371C11.6097 6.54602 11.6508 6.48451 11.7026 6.4327C11.7544 6.3809 11.8159 6.3398 11.8836 6.31176C11.9513 6.28372 12.0239 6.26929 12.0972 6.26929C12.1704 6.26929 12.243 6.28372 12.3107 6.31176C12.3784 6.3398 12.4399 6.3809 12.4917 6.4327C12.5435 6.48451 12.5846 6.54602 12.6126 6.61371C12.6406 6.6814 12.6551 6.75395 12.6551 6.82722C12.6551 7.13583 12.4055 7.38541 12.0974 7.38541Z" fill="white"/>
<path d="M9.60817 10.8643C10.467 10.8643 11.1631 10.1681 11.1631 9.30935C11.1631 8.45057 10.467 7.75439 9.60817 7.75439C8.7494 7.75439 8.05322 8.45057 8.05322 9.30935C8.05322 10.1681 8.7494 10.8643 9.60817 10.8643Z" fill="white"/>
</svg>
