<svg width="20" height="20" viewBox="0 0 20 20" fill="none" xmlns="http://www.w3.org/2000/svg">
<circle cx="10.2917" cy="9.70874" r="9.70874" fill="#7F7F7F"/>
<path d="M15.9324 5.66303C15.5001 5.85461 15.0356 5.98406 14.5473 6.04257C15.0512 5.74111 15.4281 5.26664 15.6078 4.70769C15.1344 4.98885 14.6164 5.18675 14.0761 5.2928C13.7128 4.9049 13.2316 4.64779 12.7072 4.5614C12.1828 4.475 11.6446 4.56415 11.1761 4.815C10.7075 5.06586 10.3349 5.46438 10.1161 5.9487C9.89725 6.43302 9.84444 6.97604 9.96584 7.49345C9.00672 7.44529 8.06843 7.196 7.21189 6.76175C6.35534 6.3275 5.59968 5.718 4.99393 4.9728C4.78681 5.33008 4.66772 5.74432 4.66772 6.18549C4.66749 6.58264 4.76529 6.9737 4.95245 7.32399C5.1396 7.67428 5.41033 7.97295 5.7406 8.19351C5.35757 8.18133 4.98299 8.07783 4.64804 7.89164V7.9227C4.64801 8.47972 4.84068 9.0196 5.19338 9.45073C5.54608 9.88186 6.03708 10.1777 6.58306 10.288C6.22774 10.3842 5.85521 10.3983 5.49361 10.3294C5.64765 10.8087 5.94772 11.2278 6.35179 11.5281C6.75587 11.8284 7.24373 11.9948 7.74707 12.004C6.89262 12.6748 5.83737 13.0386 4.75109 13.037C4.55866 13.0371 4.3664 13.0258 4.17529 13.0034C5.27793 13.7123 6.56149 14.0886 7.87238 14.0871C12.3099 14.0871 14.7358 10.4118 14.7358 7.22419C14.7358 7.12063 14.7332 7.01604 14.7286 6.91248C15.2004 6.57123 15.6077 6.14867 15.9314 5.66458L15.9324 5.66303Z" fill="white"/>
</svg>
