<svg width="20" height="17" viewBox="0 0 20 17" fill="none" xmlns="http://www.w3.org/2000/svg">
<path d="M3.607 12.9641H1.17843C1.01741 12.9641 0.862978 13.0281 0.749117 13.142C0.635256 13.2558 0.571289 13.4103 0.571289 13.5713L0.571289 15.9999C0.571289 16.1609 0.635256 16.3153 0.749117 16.4292C0.862978 16.543 1.01741 16.607 1.17843 16.607H3.607C3.76803 16.607 3.92246 16.543 4.03632 16.4292C4.15018 16.3153 4.21415 16.1609 4.21415 15.9999V13.5713C4.21415 13.4103 4.15018 13.2558 4.03632 13.142C3.92246 13.0281 3.76803 12.9641 3.607 12.9641ZM3.607 0.821289H1.17843C1.01741 0.821289 0.862978 0.885256 0.749117 0.999117C0.635256 1.11298 0.571289 1.26741 0.571289 1.42843L0.571289 3.857C0.571289 4.01803 0.635256 4.17246 0.749117 4.28632C0.862978 4.40018 1.01741 4.46415 1.17843 4.46415H3.607C3.76803 4.46415 3.92246 4.40018 4.03632 4.28632C4.15018 4.17246 4.21415 4.01803 4.21415 3.857V1.42843C4.21415 1.26741 4.15018 1.11298 4.03632 0.999117C3.92246 0.885256 3.76803 0.821289 3.607 0.821289ZM3.607 6.89272H1.17843C1.01741 6.89272 0.862978 6.95668 0.749117 7.07055C0.635256 7.18441 0.571289 7.33884 0.571289 7.49986L0.571289 9.92843C0.571289 10.0895 0.635256 10.2439 0.749117 10.3577C0.862978 10.4716 1.01741 10.5356 1.17843 10.5356H3.607C3.76803 10.5356 3.92246 10.4716 4.03632 10.3577C4.15018 10.2439 4.21415 10.0895 4.21415 9.92843V7.49986C4.21415 7.33884 4.15018 7.18441 4.03632 7.07055C3.92246 6.95668 3.76803 6.89272 3.607 6.89272ZM19.3927 13.5713H7.24986C7.08884 13.5713 6.93441 13.6353 6.82055 13.7491C6.70668 13.863 6.64272 14.0174 6.64272 14.1784V15.3927C6.64272 15.5537 6.70668 15.7082 6.82055 15.822C6.93441 15.9359 7.08884 15.9999 7.24986 15.9999H19.3927C19.5537 15.9999 19.7082 15.9359 19.822 15.822C19.9359 15.7082 19.9999 15.5537 19.9999 15.3927V14.1784C19.9999 14.0174 19.9359 13.863 19.822 13.7491C19.7082 13.6353 19.5537 13.5713 19.3927 13.5713ZM19.3927 1.42843H7.24986C7.08884 1.42843 6.93441 1.4924 6.82055 1.60626C6.70668 1.72012 6.64272 1.87455 6.64272 2.03557V3.24986C6.64272 3.41088 6.70668 3.56531 6.82055 3.67918C6.93441 3.79304 7.08884 3.857 7.24986 3.857H19.3927C19.5537 3.857 19.7082 3.79304 19.822 3.67918C19.9359 3.56531 19.9999 3.41088 19.9999 3.24986V2.03557C19.9999 1.87455 19.9359 1.72012 19.822 1.60626C19.7082 1.4924 19.5537 1.42843 19.3927 1.42843ZM19.3927 7.49986H7.24986C7.08884 7.49986 6.93441 7.56383 6.82055 7.67769C6.70668 7.79155 6.64272 7.94598 6.64272 8.107V9.32129C6.64272 9.48231 6.70668 9.63674 6.82055 9.7506C6.93441 9.86447 7.08884 9.92843 7.24986 9.92843H19.3927C19.5537 9.92843 19.7082 9.86447 19.822 9.7506C19.9359 9.63674 19.9999 9.48231 19.9999 9.32129V8.107C19.9999 7.94598 19.9359 7.79155 19.822 7.67769C19.7082 7.56383 19.5537 7.49986 19.3927 7.49986Z" fill="#7F7F7F"/>
</svg>
